<?xml version="1.0" encoding="UTF-8" standalone="no"?>
<!-- Created with Inkscape (http://www.inkscape.org/) -->

<svg
   xmlns:dc="http://purl.org/dc/elements/1.1/"
   xmlns:cc="http://creativecommons.org/ns#"
   xmlns:rdf="http://www.w3.org/1999/02/22-rdf-syntax-ns#"
   xmlns:svg="http://www.w3.org/2000/svg"
   xmlns="http://www.w3.org/2000/svg"
   xmlns:sodipodi="http://sodipodi.sourceforge.net/DTD/sodipodi-0.dtd"
   xmlns:inkscape="http://www.inkscape.org/namespaces/inkscape"
   version="1.1"
   id="svg2"
   xml:space="preserve"
   width="214.94667"
   height="208.61333"
   viewBox="0 0 214.94667 208.61333"
   sodipodi:docname="logo-GenomiqueENS.svg"
   inkscape:export-filename="/home/jourdren/Bureau/logos/Plateforme/logo-GenomiqueENS-5-2.png"
   inkscape:export-xdpi="383.78159"
   inkscape:export-ydpi="383.78159"
   inkscape:version="0.92.5 (2060ec1f9f, 2020-04-08)"><metadata
     id="metadata8"><rdf:RDF><cc:Work
         rdf:about=""><dc:format>image/svg+xml</dc:format><dc:type
           rdf:resource="http://purl.org/dc/dcmitype/StillImage" /><dc:title /></cc:Work></rdf:RDF></metadata><defs
     id="defs6" /><sodipodi:namedview
     pagecolor="#ffffff"
     bordercolor="#666666"
     borderopacity="1"
     objecttolerance="10"
     gridtolerance="10"
     guidetolerance="10"
     inkscape:pageopacity="0"
     inkscape:pageshadow="2"
     inkscape:window-width="1684"
     inkscape:window-height="1376"
     id="namedview4"
     showgrid="false"
     inkscape:snap-text-baseline="false"
     inkscape:zoom="4.5251184"
     inkscape:cx="99.825292"
     inkscape:cy="101.65481"
     inkscape:window-x="72"
     inkscape:window-y="27"
     inkscape:window-maximized="0"
     inkscape:current-layer="g12" /><g
     id="g10"
     inkscape:groupmode="layer"
     inkscape:label="ink_ext_XXXXXX"
     transform="matrix(1.3333333,0,0,-1.3333333,0,208.61333)"><g
       id="g12"
       transform="scale(0.1)"><path
   d="M 1612.05,0 H 0 V 1564.64 H 1612.05 V 0"
   style="fill:#000038;fill-opacity:1;fill-rule:nonzero;stroke:none"
   id="path14"
   inkscape:connector-curvature="0"
   inkscape:export-xdpi="96.175484"
   inkscape:export-ydpi="96.175484" /><path
   d="m 368.352,1230.49 c -3.262,-3.26 -7.786,-5.28 -12.754,-5.28 H 165.09 c -9.934,0 -18,8.01 -18,17.95 0,9.95 8.066,18.01 18,18.01 h 190.508 c 9.937,0 18.023,-8.06 18.023,-18.01 0,-4.96 -2.051,-9.45 -5.269,-12.67 v 0"
   style="fill:#f8de63;fill-opacity:1;fill-rule:nonzero;stroke:none"
   id="path52"
   inkscape:connector-curvature="0" /><path
   d="m 600.145,1417.47 c 3.261,3.24 7.765,5.25 12.738,5.25 h 190.535 c 9.922,0 18.008,-8.02 18.008,-17.96 0,-9.95 -8.086,-18.02 -18.008,-18.02 H 612.883 c -9.922,0 -18.028,8.07 -18.028,18.02 0,4.95 2.059,9.45 5.29,12.71 v 0"
   style="fill:#224897;fill-opacity:1;fill-rule:nonzero;stroke:none"
   id="path54"
   inkscape:connector-curvature="0" /><path
   d="m 600.145,1117.9 c 3.261,3.28 7.765,5.29 12.738,5.29 h 190.535 c 9.922,0 18.008,-8.03 18.008,-17.97 0,-9.93 -8.086,-18.01 -18.008,-18.01 H 612.883 c -9.922,0 -18.028,8.08 -18.028,18.01 0,4.96 2.059,9.46 5.29,12.68 v 0"
   style="fill:#f8de63;fill-opacity:1;fill-rule:nonzero;stroke:none"
   id="path56"
   inkscape:connector-curvature="0" /><path
   d="m 600.145,1047.12 c 3.261,3.24 7.765,5.26 12.738,5.26 h 190.535 c 9.922,0 18.008,-8 18.008,-17.94 0,-9.95 -8.086,-18.03 -18.008,-18.03 H 612.883 c -9.922,0 -18.028,8.08 -18.028,18.03 0,4.96 2.059,9.45 5.29,12.68 v 0"
   style="fill:#ff6800;fill-opacity:1;fill-rule:nonzero;stroke:none"
   id="path58"
   inkscape:connector-curvature="0" /><path
   d="m 600.145,693.117 c 3.261,3.281 7.765,5.254 12.738,5.254 h 190.535 c 9.922,0 18.008,-8.008 18.008,-17.93 0,-9.921 -8.086,-18.027 -18.008,-18.027 H 612.883 c -9.922,0 -18.028,8.106 -18.028,18.027 0,4.961 2.059,9.473 5.29,12.676 v 0"
   style="fill:#a20f58;fill-opacity:1;fill-rule:nonzero;stroke:none"
   id="path60"
   inkscape:connector-curvature="0" /><path
   d="m 929.188,1264.96 c 3.261,3.25 7.785,5.26 12.777,5.26 h 190.495 c 9.94,0 17.99,-8.02 17.99,-17.95 0,-9.94 -8.05,-18.03 -17.99,-18.03 H 941.965 c -9.961,0 -18.059,8.09 -18.059,18.03 0,4.95 2.051,9.46 5.282,12.69 v 0"
   style="fill:#77b223;fill-opacity:1;fill-rule:nonzero;stroke:none"
   id="path62"
   inkscape:connector-curvature="0" /><path
   d="m 929.188,910.965 c 3.261,3.238 7.785,5.273 12.777,5.273 h 190.495 c 9.94,0 17.99,-8.047 17.99,-17.953 0,-9.976 -8.05,-18.055 -17.99,-18.055 H 941.965 c -9.961,0 -18.059,8.079 -18.059,18.055 0,4.934 2.051,9.445 5.282,12.68 v 0"
   style="fill:#224897;fill-opacity:1;fill-rule:nonzero;stroke:none"
   id="path64"
   inkscape:connector-curvature="0" /><path
   d="m 929.188,851.063 c 3.261,3.242 7.785,5.253 12.777,5.253 h 190.495 c 9.94,0 17.99,-8.007 17.99,-17.961 0,-9.941 -8.05,-18.015 -17.99,-18.015 H 941.965 c -9.961,0 -18.059,8.074 -18.059,18.015 0,4.981 2.051,9.485 5.282,12.708 v 0"
   style="fill:#d32a24;fill-opacity:1;fill-rule:nonzero;stroke:none"
   id="path66"
   inkscape:connector-curvature="0" /><path
   d="m 929.188,526.98 c 3.261,3.231 7.785,5.258 12.777,5.258 h 190.495 c 9.94,0 17.99,-8.027 17.99,-17.968 0,-9.918 -8.05,-18.008 -17.99,-18.008 H 941.965 c -9.961,0 -18.059,8.09 -18.059,18.008 0,4.98 2.051,9.468 5.282,12.71 v 0"
   style="fill:#f8de63;fill-opacity:1;fill-rule:nonzero;stroke:none"
   id="path68"
   inkscape:connector-curvature="0" /><path
   d="m 368.352,1084.71 c -3.262,-3.26 -7.786,-5.28 -12.754,-5.28 H 165.09 c -9.934,0 -18,8.03 -18,17.97 0,9.92 8.066,18.01 18,18.01 h 190.508 c 9.937,0 18.023,-8.09 18.023,-18.01 0,-4.98 -2.051,-9.47 -5.269,-12.69 v 0"
   style="fill:#d32a24;fill-opacity:1;fill-rule:nonzero;stroke:none"
   id="path70"
   inkscape:connector-curvature="0" /><path
   d="m 368.352,938.902 c -3.262,-3.23 -7.786,-5.242 -12.754,-5.242 H 165.09 c -9.934,0 -18,8.035 -18,17.969 0,9.922 8.066,18.008 18,18.008 h 190.508 c 9.937,0 18.023,-8.086 18.023,-18.008 0,-4.973 -2.051,-9.473 -5.269,-12.727 v 0"
   style="fill:#224897;fill-opacity:1;fill-rule:nonzero;stroke:none"
   id="path72"
   inkscape:connector-curvature="0" /><path
   d="m 368.352,793.18 c -3.262,-3.289 -7.786,-5.274 -12.754,-5.274 H 165.09 c -9.934,0 -18,8.008 -18,17.93 0,9.961 8.066,18.027 18,18.027 h 190.508 c 9.937,0 18.023,-8.066 18.023,-18.027 0,-4.941 -2.051,-9.453 -5.269,-12.656 v 0"
   style="fill:#77b223;fill-opacity:1;fill-rule:nonzero;stroke:none"
   id="path74"
   inkscape:connector-curvature="0" /><path
   d="m 1258.11,608.02 c 3.26,3.222 7.77,5.234 12.73,5.234 h 190.53 c 9.92,0 17.99,-8.008 17.99,-17.969 0,-9.902 -8.07,-18.008 -17.99,-18.008 h -190.53 c -9.92,0 -18.01,8.106 -18.01,18.008 0,4.961 2.03,9.473 5.28,12.735 v 0"
   style="fill:#d32a24;fill-opacity:1;fill-rule:nonzero;stroke:none"
   id="path76"
   inkscape:connector-curvature="0" /><path
   d="m 1258.11,680.871 c 3.26,3.262 7.77,5.254 12.73,5.254 h 190.53 c 9.92,0 17.99,-8.008 17.99,-17.949 0,-9.942 -8.07,-18.008 -17.99,-18.008 h -190.53 c -9.92,0 -18.01,8.066 -18.01,18.008 0,4.98 2.03,9.492 5.28,12.695 v 0"
   style="fill:#77b223;fill-opacity:1;fill-rule:nonzero;stroke:none"
   id="path78"
   inkscape:connector-curvature="0" /><path
   d="m 1258.11,753.762 c 3.26,3.261 7.77,5.254 12.73,5.254 h 190.53 c 9.92,0 17.99,-8.028 17.99,-17.95 0,-9.941 -8.07,-18.007 -17.99,-18.007 h -190.53 c -9.92,0 -18.01,8.066 -18.01,18.007 0,4.942 2.03,9.473 5.28,12.696 v 0"
   style="fill:#224897;fill-opacity:1;fill-rule:nonzero;stroke:none"
   id="path80"
   inkscape:connector-curvature="0" /><path
   d="m 1258.11,972.418 c 3.26,3.262 7.77,5.266 12.73,5.266 h 190.53 c 9.92,0 17.99,-8.02 17.99,-17.969 0,-9.914 -8.07,-17.988 -17.99,-17.988 h -190.53 c -9.92,0 -18.01,8.074 -18.01,17.988 0,4.988 2.03,9.473 5.28,12.703 v 0"
   style="fill:#bdcc41;fill-opacity:1;fill-rule:nonzero;stroke:none"
   id="path82"
   inkscape:connector-curvature="0" /><path
   d="m 368.352,574.875 c -3.262,-3.281 -7.786,-5.254 -12.754,-5.254 H 165.09 c -9.934,0 -18,7.988 -18,17.91 0,9.961 8.066,18.028 18,18.028 h 190.508 c 9.937,0 18.023,-8.067 18.023,-18.028 0,-4.941 -2.051,-9.453 -5.269,-12.656 v 0"
   style="fill:#ff6800;fill-opacity:1;fill-rule:nonzero;stroke:none"
   id="path84"
   inkscape:connector-curvature="0" /><path
   d="m 368.352,501.98 c -3.262,-3.281 -7.786,-5.269 -12.754,-5.269 H 165.09 c -9.934,0 -18,8.027 -18,17.969 0,9.922 8.066,18.011 18,18.011 h 190.508 c 9.937,0 18.023,-8.089 18.023,-18.011 0,-4.981 -2.051,-9.469 -5.269,-12.7 v 0"
   style="fill:#d32a24;fill-opacity:1;fill-rule:nonzero;stroke:none"
   id="path86"
   inkscape:connector-curvature="0" /><path
   d="m 368.352,356.191 c -3.262,-3.23 -7.786,-5.23 -12.754,-5.23 H 165.09 c -9.934,0 -18,8.008 -18,17.937 0,9.93 8.066,18.032 18,18.032 h 190.508 c 9.937,0 18.023,-8.102 18.023,-18.032 0,-4.949 -2.051,-9.476 -5.269,-12.707 v 0"
   style="fill:#224897;fill-opacity:1;fill-rule:nonzero;stroke:none"
   id="path88"
   inkscape:connector-curvature="0" /><path
   d="m 368.352,283.32 c -3.262,-3.261 -7.786,-5.25 -12.754,-5.25 H 165.09 c -9.934,0 -18,8.008 -18,17.93 0,9.961 8.066,18.02 18,18.02 h 190.508 c 9.937,0 18.023,-8.059 18.023,-18.02 0,-4.961 -2.051,-9.449 -5.269,-12.68 v 0"
   style="fill:#3aa5c1;fill-opacity:1;fill-rule:nonzero;stroke:none"
   id="path90"
   inkscape:connector-curvature="0" /><path
   d="m 368.352,137.539 c -3.262,-3.25 -7.786,-5.258 -12.754,-5.258 H 165.09 c -9.934,0 -18,8.028 -18,17.969 0,9.93 8.066,17.98 18,17.98 h 190.508 c 9.937,0 18.023,-8.05 18.023,-17.98 0,-4.98 -2.051,-9.469 -5.269,-12.711 v 0"
   style="fill:#bdcc41;fill-opacity:1;fill-rule:nonzero;stroke:none"
   id="path92"
   inkscape:connector-curvature="0" /><text
   xml:space="preserve"
   style="font-style:normal;font-variant:normal;font-weight:bold;font-stretch:normal;font-size:174px;line-height:1.25;font-family:'Arson Pro';-inkscape-font-specification:'Arson Pro, Bold';font-variant-ligatures:normal;font-variant-caps:normal;font-variant-numeric:normal;font-feature-settings:normal;text-align:end;letter-spacing:0px;word-spacing:0px;writing-mode:lr-tb;text-anchor:end;stroke-width:7.5"
   x="1488.2034"
   y="-349.63132"
   id="text3799"
   transform="scale(1,-1)"><tspan
     sodipodi:role="line"
     id="tspan4699"
     x="1480.7034"
     y="-349.63132"
     style="font-style:normal;font-variant:normal;font-weight:bold;font-stretch:normal;font-size:174px;font-family:'Arson Pro';-inkscape-font-specification:'Arson Pro, Bold';font-variant-ligatures:normal;font-variant-caps:normal;font-variant-numeric:normal;font-feature-settings:normal;text-align:end;letter-spacing:-7.5px;writing-mode:lr-tb;text-anchor:end;fill:#f1f1f1;fill-opacity:1"
     dy="50">GENOMIQUE</tspan><tspan
     sodipodi:role="line"
     id="tspan4701"
     x="1480.7034"
     y="-132.13132"
     style="font-style:normal;font-variant:normal;font-weight:bold;font-stretch:normal;font-size:174px;font-family:'Arson Pro';-inkscape-font-specification:'Arson Pro, Bold';font-variant-ligatures:normal;font-variant-caps:normal;font-variant-numeric:normal;font-feature-settings:normal;text-align:end;letter-spacing:-7.5px;writing-mode:lr-tb;text-anchor:end;fill:#96a3b4;fill-opacity:1">ENS</tspan></text>



</g></g></svg>