<?xml version="1.0" encoding="UTF-8" standalone="no"?>
<!-- Created with Inkscape (http://www.inkscape.org/) -->

<svg
   xmlns:dc="http://purl.org/dc/elements/1.1/"
   xmlns:cc="http://creativecommons.org/ns#"
   xmlns:rdf="http://www.w3.org/1999/02/22-rdf-syntax-ns#"
   xmlns:svg="http://www.w3.org/2000/svg"
   xmlns="http://www.w3.org/2000/svg"
   xmlns:sodipodi="http://sodipodi.sourceforge.net/DTD/sodipodi-0.dtd"
   xmlns:inkscape="http://www.inkscape.org/namespaces/inkscape"
   id="svg2"
   version="1.1"
   inkscape:version="0.48.3.1 r9886"
   width="201.5125"
   height="195.575"
   xml:space="preserve"
   sodipodi:docname="logo.svg"
   inkscape:export-filename="logo-90pxh.png"
   inkscape:export-xdpi="41.415276"
   inkscape:export-ydpi="41.415276"><metadata
     id="metadata8"><rdf:RDF><cc:Work
         rdf:about=""><dc:format>image/svg+xml</dc:format><dc:type
           rdf:resource="http://purl.org/dc/dcmitype/StillImage" /><dc:title></dc:title></cc:Work></rdf:RDF></metadata><defs
     id="defs6"><clipPath
       clipPathUnits="userSpaceOnUse"
       id="clipPath18"><path
         d="m 0,0 1612,0 0,1564.64 -1612,0 L 0,0 z"
         id="path20" /></clipPath></defs><sodipodi:namedview
     pagecolor="#ffffff"
     bordercolor="#666666"
     borderopacity="1"
     objecttolerance="10"
     gridtolerance="10"
     guidetolerance="10"
     inkscape:pageopacity="0"
     inkscape:pageshadow="2"
     inkscape:window-width="640"
     inkscape:window-height="480"
     id="namedview4"
     showgrid="false"
     inkscape:zoom="1.2066982"
     inkscape:cx="100.75625"
     inkscape:cy="97.787497"
     inkscape:window-x="0"
     inkscape:window-y="0"
     inkscape:window-maximized="0"
     inkscape:current-layer="g10" /><g
     id="g10"
     inkscape:groupmode="layer"
     inkscape:label="ink_ext_XXXXXX"
     transform="matrix(1.25,0,0,-1.25,0,195.575)"><g
       id="g12"
       transform="scale(0.1,0.1)"><g
         id="g14"><g
           id="g16"
           clip-path="url(#clipPath18)"><path
             d="m 0,0 1612.05,0 0,1564.64 L 0,1564.64 0,0 z"
             style="fill:#131228;fill-opacity:1;fill-rule:nonzero;stroke:none"
             id="path22" /><path
             d="m 512.668,275.051 c -12.5,0 -23.891,2.058 -34.184,6.168 -10.281,4.109 -19.121,9.84 -26.511,17.152 -7.395,7.309 -13.145,16 -17.254,26.059 -4.121,10.05 -6.172,21.031 -6.172,32.922 l 0,0.449 c 0,11.429 2.09,22.129 6.277,32.121 4.192,9.976 10.02,18.738 17.488,26.289 7.473,7.551 16.309,13.488 26.528,17.828 10.203,4.352 21.402,6.52 33.601,6.52 7.161,0 13.672,-0.5 19.539,-1.489 5.872,-0.988 11.321,-2.398 16.348,-4.23 5.031,-1.82 9.746,-4.11 14.172,-6.86 4.426,-2.73 8.691,-5.859 12.805,-9.378 l -22.18,-26.731 c -3.047,2.578 -6.094,4.867 -9.141,6.848 -3.046,1.98 -6.211,3.652 -9.48,5.031 -3.281,1.379 -6.828,2.43 -10.637,3.199 -3.808,0.77 -8,1.153 -12.566,1.153 -6.406,0 -12.395,-1.34 -17.949,-4.024 -5.571,-2.656 -10.442,-6.258 -14.629,-10.769 -4.203,-4.5 -7.473,-9.758 -9.836,-15.797 -2.364,-6.032 -3.543,-12.492 -3.543,-19.364 l 0,-0.457 c 0,-7.339 1.179,-14.089 3.543,-20.281 2.363,-6.191 5.715,-11.57 10.058,-16.148 4.348,-4.582 9.453,-8.133 15.325,-10.653 5.859,-2.519 12.371,-3.777 19.539,-3.777 13.105,0 24.152,3.219 33.144,9.668 l 0,23.012 -35.43,0 0,30.398 69.493,0 0,-69.488 c -8.235,-7.012 -18.02,-12.992 -29.375,-17.942 -11.36,-4.949 -24.344,-7.429 -38.973,-7.429"
             style="fill:#f1f1f1;fill-opacity:1;fill-rule:nonzero;stroke:none"
             id="path24" /><path
             d="m 601.133,437.809 120.476,0 0,-31.309 -85.73,0 0,-32.469 75.437,0 0,-31.312 -75.437,0 0,-33.61 86.875,0 0,-31.32 -121.621,0 0,160.02"
             style="fill:#f1f1f1;fill-opacity:1;fill-rule:nonzero;stroke:none"
             id="path26" /><path
             d="m 740.574,437.809 32.461,0 74.985,-98.52 0,98.52 34.746,0 0,-160.02 -29.946,0 -77.5,101.731 0,-101.731 -34.746,0 0,160.02"
             style="fill:#f1f1f1;fill-opacity:1;fill-rule:nonzero;stroke:none"
             id="path28" /><path
             d="m 985.637,307.512 c 7.008,0 13.484,1.297 19.433,3.886 5.94,2.59 11,6.172 15.19,10.743 4.2,4.57 7.47,9.871 9.84,15.89 2.36,6.008 3.54,12.457 3.54,19.321 l 0,0.449 c 0,6.859 -1.18,13.34 -3.54,19.437 -2.37,6.094 -5.72,11.422 -10.06,15.992 -4.35,4.571 -9.48,8.2 -15.43,10.86 -5.95,2.672 -12.422,4.012 -19.434,4.012 -7.156,0 -13.684,-1.301 -19.539,-3.891 -5.871,-2.602 -10.903,-6.172 -15.09,-10.742 -4.199,-4.571 -7.473,-9.867 -9.832,-15.891 -2.363,-6.027 -3.547,-12.457 -3.547,-19.316 l 0,-0.461 c 0,-6.852 1.184,-13.34 3.547,-19.43 2.359,-6.09 5.711,-11.43 10.055,-16 4.347,-4.57 9.457,-8.191 15.324,-10.859 5.859,-2.66 12.375,-4 19.543,-4 z m -0.461,-32.461 c -12.344,0 -23.699,2.168 -34.063,6.508 -10.359,4.351 -19.316,10.222 -26.855,17.613 -7.547,7.379 -13.418,16.078 -17.61,26.058 -4.187,9.981 -6.277,20.692 -6.277,32.122 l 0,0.449 c 0,11.429 2.129,22.129 6.399,32.121 4.265,9.976 10.171,18.738 17.71,26.289 7.551,7.551 16.536,13.488 26.973,17.828 10.442,4.352 21.84,6.52 34.184,6.52 12.343,0 23.703,-2.168 34.063,-6.52 10.36,-4.34 19.31,-10.211 26.85,-17.598 7.55,-7.402 13.42,-16.082 17.61,-26.062 4.19,-9.981 6.29,-20.68 6.29,-32.117 l 0,-0.461 c 0,-11.422 -2.14,-22.129 -6.41,-32.121 -4.26,-9.981 -10.16,-18.739 -17.71,-26.282 -7.54,-7.539 -16.54,-13.488 -26.97,-17.839 -10.44,-4.34 -21.84,-6.508 -34.184,-6.508"
             style="fill:#f1f1f1;fill-opacity:1;fill-rule:nonzero;stroke:none"
             id="path30" /><path
             d="m 1088.05,437.809 37.95,0 42.06,-67.661 42.07,67.661 37.94,0 0,-160.02 -34.75,0 0,104.473 -45.03,-68.34 -0.92,0 -44.58,67.648 0,-103.781 -34.74,0 0,160.02"
             style="fill:#f1f1f1;fill-opacity:1;fill-rule:nonzero;stroke:none"
             id="path32" /><path
             d="m 1274.36,277.789 35.1992,0 0,160.02 -35.1992,0 0,-160.02 z"
             style="fill:#f1f1f1;fill-opacity:1;fill-rule:nonzero;stroke:none"
             id="path34" /><path
             d="m 1410.83,275.051 c -11.74,0 -22.63,2.14 -32.69,6.41 -10.05,4.25 -18.75,10.078 -26.06,17.48 -7.31,7.387 -13.03,16.118 -17.14,26.18 -4.12,10.059 -6.17,20.801 -6.17,32.231 l 0,0.449 c 0,11.429 2.05,22.129 6.17,32.121 4.11,9.976 9.83,18.738 17.14,26.289 7.31,7.551 16.08,13.488 26.29,17.828 10.21,4.352 21.49,6.52 33.84,6.52 7.46,0 14.28,-0.61 20.46,-1.84 6.17,-1.207 11.76,-2.887 16.79,-5.02 5.03,-2.14 9.68,-4.719 13.95,-7.769 4.27,-3.051 8.23,-6.41 11.89,-10.059 l -22.4,-25.84 c -6.26,5.649 -12.62,10.059 -19.09,13.258 -6.49,3.211 -13.76,4.813 -21.84,4.813 -6.71,0 -12.91,-1.301 -18.62,-3.891 -5.72,-2.602 -10.64,-6.172 -14.75,-10.742 -4.12,-4.571 -7.31,-9.867 -9.6,-15.891 -2.29,-6.027 -3.43,-12.457 -3.43,-19.316 l 0,-0.461 c 0,-6.852 1.14,-13.34 3.43,-19.43 2.29,-6.09 5.44,-11.43 9.49,-16 4.03,-4.57 8.91,-8.191 14.63,-10.859 5.71,-2.66 12,-4 18.85,-4 9.15,0 16.89,1.679 23.21,5.027 6.32,3.352 12.61,7.922 18.86,13.723 l 22.41,-22.641 c -4.13,-4.422 -8.39,-8.371 -12.81,-11.883 -4.42,-3.508 -9.26,-6.508 -14.52,-9.027 -5.25,-2.512 -11,-4.43 -17.25,-5.723 -6.25,-1.289 -13.27,-1.937 -21.04,-1.937"
             style="fill:#f1f1f1;fill-opacity:1;fill-rule:nonzero;stroke:none"
             id="path36" /><path
             d="m 473.508,182.859 c 5.652,0 10.039,1.493 13.164,4.469 3.125,2.961 4.683,6.66 4.683,11.043 l 0,0.289 c 0,5.07 -1.636,8.93 -4.902,11.57 -3.269,2.622 -7.73,3.942 -13.387,3.942 l -17.414,0 0,-31.313 17.856,0 z m -40.383,51.653 41.848,0 c 6.14,0 11.629,-0.864 16.453,-2.563 4.824,-1.699 8.926,-4.129 12.297,-7.238 3.355,-3.133 5.945,-6.859 7.754,-11.191 1.793,-4.348 2.703,-9.149 2.703,-14.418 l 0,-0.293 c 0,-5.95 -1.075,-11.168 -3.223,-15.649 -2.148,-4.5 -5.098,-8.25 -8.848,-11.269 -3.757,-3.02 -8.144,-5.301 -13.171,-6.801 -5.02,-1.512 -10.415,-2.281 -16.165,-2.281 l -17.121,0 0,-30.719 -22.527,0 0,102.422"
             style="fill:#96a3b4;fill-opacity:1;fill-rule:nonzero;stroke:none"
             id="path38" /><path
             d="m 583.816,174.961 -13.601,33.219 -13.606,-33.219 27.207,0 z m -23.699,60.289 20.781,0 43.899,-103.16 -23.567,0 -9.355,22.969 -43.313,0 -9.363,-22.969 -22.969,0 43.887,103.16"
             style="fill:#96a3b4;fill-opacity:1;fill-rule:nonzero;stroke:none"
             id="path40" /><path
             d="m 680.098,184.77 c 5.554,0 9.824,1.32 12.8,3.941 2.981,2.641 4.465,6.141 4.465,10.539 l 0,0.289 c 0,4.883 -1.562,8.539 -4.675,10.981 -3.126,2.429 -7.473,3.652 -13.032,3.652 l -22.383,0 0,-29.402 22.825,0 z m -45.352,49.742 46.816,0 c 12.969,0 22.918,-3.461 29.844,-10.391 5.86,-5.851 8.782,-13.66 8.782,-23.41 l 0,-0.289 c 0,-8.293 -2.024,-15.051 -6.067,-20.262 -4.055,-5.23 -9.348,-9.058 -15.879,-11.488 l 25.02,-36.582 -26.336,0 -21.946,32.769 -17.707,0 0,-32.769 -22.527,0 0,102.422"
             style="fill:#96a3b4;fill-opacity:1;fill-rule:nonzero;stroke:none"
             id="path42" /><path
             d="m 735.691,132.09 22.5391,0 0,102.422 -22.5391,0 0,-102.422 z"
             style="fill:#96a3b4;fill-opacity:1;fill-rule:nonzero;stroke:none"
             id="path44" /><path
             d="m 814.551,130.629 c -7.805,0 -15.457,1.34 -22.969,4.019 -7.512,2.692 -14.336,6.813 -20.488,12.364 l 13.32,15.949 c 4.68,-3.801 9.481,-6.832 14.414,-9.07 4.922,-2.25 10.313,-3.36 16.16,-3.36 4.692,0 8.324,0.848 10.903,2.559 2.586,1.711 3.875,4.07 3.875,7.101 l 0,0.289 c 0,1.45 -0.262,2.75 -0.801,3.879 -0.547,1.11 -1.57,2.161 -3.086,3.141 -1.516,0.969 -3.613,1.941 -6.309,2.922 -2.683,0.976 -6.179,2 -10.488,3.078 -5.187,1.27 -9.871,2.68 -14.082,4.25 -4.207,1.551 -7.773,3.48 -10.715,5.77 -2.93,2.289 -5.203,5.14 -6.812,8.562 -1.614,3.406 -2.422,7.656 -2.422,12.727 l 0,0.293 c 0,4.687 0.867,8.91 2.617,12.66 1.734,3.75 4.187,7 7.332,9.726 3.152,2.731 6.914,4.832 11.289,6.293 4.375,1.469 9.191,2.199 14.465,2.199 7.508,0 14.402,-1.128 20.699,-3.371 6.289,-2.25 12.07,-5.468 17.336,-9.66 L 837.078,205.98 c -4.578,3.122 -9.058,5.579 -13.457,7.391 -4.383,1.801 -8.777,2.707 -13.16,2.707 -4.399,0 -7.688,-0.859 -9.887,-2.558 -2.183,-1.711 -3.289,-3.829 -3.289,-6.372 l 0,-0.289 c 0,-1.66 0.32,-3.097 0.957,-4.32 0.637,-1.219 1.778,-2.309 3.446,-3.289 1.664,-0.98 3.937,-1.898 6.82,-2.781 2.887,-0.879 6.531,-1.899 10.933,-3.071 5.176,-1.367 9.797,-2.91 13.86,-4.609 4.062,-1.707 7.48,-3.758 10.273,-6.148 2.781,-2.379 4.895,-5.192 6.309,-8.411 1.418,-3.218 2.129,-7.07 2.129,-11.558 l 0,-0.301 c 0,-5.062 -0.926,-9.582 -2.766,-13.531 -1.844,-3.949 -4.41,-7.27 -7.703,-9.942 -3.301,-2.687 -7.227,-4.738 -11.797,-6.148 -4.57,-1.41 -9.641,-2.121 -15.195,-2.121"
             style="fill:#96a3b4;fill-opacity:1;fill-rule:nonzero;stroke:none"
             id="path46" /><path
             d="m 951.797,130.328 c -7.512,0 -14.485,1.371 -20.93,4.102 -6.433,2.73 -11.988,6.461 -16.679,11.199 -4.676,4.723 -8.336,10.312 -10.965,16.742 -2.637,6.449 -3.953,13.32 -3.953,20.641 l 0,0.289 c 0,7.32 1.316,14.168 3.953,20.558 2.629,6.391 6.289,11.993 10.965,16.821 4.691,4.832 10.292,8.64 16.828,11.422 6.535,2.769 13.757,4.168 21.66,4.168 4.773,0 9.14,-0.399 13.094,-1.168 3.949,-0.782 7.531,-1.864 10.753,-3.223 3.211,-1.367 6.192,-3.027 8.926,-4.969 2.727,-1.961 5.266,-4.109 7.61,-6.449 L 978.723,203.93 c -4.004,3.609 -8.078,6.441 -12.219,8.48 -4.149,2.051 -8.809,3.078 -13.977,3.078 -4.297,0 -8.269,-0.828 -11.922,-2.488 -3.664,-1.66 -6.804,-3.949 -9.445,-6.879 -2.625,-2.93 -4.676,-6.312 -6.14,-10.16 -1.465,-3.859 -2.2,-7.981 -2.2,-12.359 l 0,-0.301 c 0,-4.391 0.735,-8.531 2.2,-12.442 1.464,-3.898 3.488,-7.308 6.074,-10.23 2.578,-2.93 5.703,-5.25 9.367,-6.957 3.648,-1.711 7.676,-2.563 12.066,-2.563 5.852,0 10.801,1.082 14.844,3.219 4.055,2.152 8.078,5.082 12.07,8.781 l 14.348,-14.488 c -2.637,-2.832 -5.371,-5.359 -8.191,-7.601 -2.832,-2.25 -5.93,-4.168 -9.297,-5.782 -3.363,-1.617 -7.043,-2.84 -11.047,-3.66 -4.004,-0.828 -8.484,-1.25 -13.457,-1.25"
             style="fill:#96a3b4;fill-opacity:1;fill-rule:nonzero;stroke:none"
             id="path48" /><path
             d="m 1005.94,234.512 77.1,0 0,-20.051 -54.87,0 0,-20.77 48.29,0 0,-20.05 -48.29,0 0,-21.5 55.6,0 0,-20.051 -77.83,0 0,102.422"
             style="fill:#96a3b4;fill-opacity:1;fill-rule:nonzero;stroke:none"
             id="path50" /><path
             d="m 1098.12,234.512 20.77,0 47.99,-63.063 0,63.063 22.24,0 0,-102.422 -19.17,0 -49.6,65.109 0,-65.109 -22.23,0 0,102.422"
             style="fill:#96a3b4;fill-opacity:1;fill-rule:nonzero;stroke:none"
             id="path52" /><path
             d="m 1231.69,213.73 -31.17,0 0,20.782 84.86,0 0,-20.782 -31.16,0 0,-81.64 -22.53,0 0,81.64"
             style="fill:#96a3b4;fill-opacity:1;fill-rule:nonzero;stroke:none"
             id="path54" /><path
             d="m 1342.16,184.77 c 5.55,0 9.82,1.32 12.8,3.941 2.98,2.641 4.46,6.141 4.46,10.539 l 0,0.289 c 0,4.883 -1.56,8.539 -4.67,10.981 -3.13,2.429 -7.47,3.652 -13.03,3.652 l -22.38,0 0,-29.402 22.82,0 z m -45.35,49.742 46.81,0 c 12.97,0 22.92,-3.461 29.85,-10.391 5.86,-5.851 8.78,-13.66 8.78,-23.41 l 0,-0.289 c 0,-8.293 -2.03,-15.051 -6.07,-20.262 -4.05,-5.23 -9.34,-9.058 -15.88,-11.488 l 25.02,-36.582 -26.34,0 -21.94,32.769 -17.7,0 0,-32.769 -22.53,0 0,102.422"
             style="fill:#96a3b4;fill-opacity:1;fill-rule:nonzero;stroke:none"
             id="path56" /><path
             d="m 1396.73,234.512 77.1,0 0,-20.051 -54.87,0 0,-20.77 48.29,0 0,-20.05 -48.29,0 0,-21.5 55.6,0 0,-20.051 -77.83,0 0,102.422"
             style="fill:#96a3b4;fill-opacity:1;fill-rule:nonzero;stroke:none"
             id="path58" /><path
             d="m 368.352,1230.49 c -3.262,-3.26 -7.786,-5.28 -12.754,-5.28 l -190.508,0 c -9.934,0 -18,8.01 -18,17.95 0,9.95 8.066,18.01 18,18.01 l 190.508,0 c 9.937,0 18.023,-8.06 18.023,-18.01 0,-4.96 -2.051,-9.45 -5.269,-12.67 l 0,0"
             style="fill:#f1dd4d;fill-opacity:1;fill-rule:nonzero;stroke:none"
             id="path60" /><path
             d="m 600.145,1417.47 c 3.261,3.24 7.765,5.25 12.738,5.25 l 190.535,0 c 9.922,0 18.008,-8.02 18.008,-17.96 0,-9.95 -8.086,-18.02 -18.008,-18.02 l -190.535,0 c -9.922,0 -18.028,8.07 -18.028,18.02 0,4.95 2.059,9.44 5.29,12.71 l 0,0"
             style="fill:#344ba6;fill-opacity:1;fill-rule:nonzero;stroke:none"
             id="path62" /><path
             d="m 600.145,1117.9 c 3.261,3.28 7.765,5.29 12.738,5.29 l 190.535,0 c 9.922,0 18.008,-8.03 18.008,-17.97 0,-9.93 -8.086,-18.01 -18.008,-18.01 l -190.535,0 c -9.922,0 -18.028,8.08 -18.028,18.01 0,4.96 2.059,9.46 5.29,12.68 l 0,0"
             style="fill:#f1dd4d;fill-opacity:1;fill-rule:nonzero;stroke:none"
             id="path64" /><path
             d="m 600.145,1047.12 c 3.261,3.24 7.765,5.26 12.738,5.26 l 190.535,0 c 9.922,0 18.008,-8 18.008,-17.94 0,-9.95 -8.086,-18.03 -18.008,-18.03 l -190.535,0 c -9.922,0 -18.028,8.08 -18.028,18.03 0,4.96 2.059,9.45 5.29,12.68 l 0,0"
             style="fill:#f25922;fill-opacity:1;fill-rule:nonzero;stroke:none"
             id="path66" /><path
             d="m 600.145,693.117 c 3.261,3.281 7.765,5.254 12.738,5.254 l 190.535,0 c 9.922,0 18.008,-8.008 18.008,-17.93 0,-9.921 -8.086,-18.027 -18.008,-18.027 l -190.535,0 c -9.922,0 -18.028,8.106 -18.028,18.027 0,4.961 2.059,9.473 5.29,12.676 l 0,0"
             style="fill:#9c1660;fill-opacity:1;fill-rule:nonzero;stroke:none"
             id="path68" /><path
             d="m 929.188,1264.96 c 3.261,3.25 7.785,5.26 12.777,5.26 l 190.495,0 c 9.94,0 17.99,-8.02 17.99,-17.95 0,-9.94 -8.05,-18.03 -17.99,-18.03 l -190.495,0 c -9.961,0 -18.059,8.09 -18.059,18.03 0,4.95 2.051,9.46 5.282,12.69 l 0,0"
             style="fill:#65c045;fill-opacity:1;fill-rule:nonzero;stroke:none"
             id="path70" /><path
             d="m 929.188,910.965 c 3.261,3.238 7.785,5.273 12.777,5.273 l 190.495,0 c 9.94,0 17.99,-8.047 17.99,-17.953 0,-9.976 -8.05,-18.055 -17.99,-18.055 l -190.495,0 c -9.961,0 -18.059,8.079 -18.059,18.055 0,4.934 2.051,9.445 5.282,12.68 l 0,0"
             style="fill:#344ba6;fill-opacity:1;fill-rule:nonzero;stroke:none"
             id="path72" /><path
             d="m 929.188,851.062 c 3.261,3.243 7.785,5.254 12.777,5.254 l 190.495,0 c 9.94,0 17.99,-8.007 17.99,-17.961 0,-9.941 -8.05,-18.015 -17.99,-18.015 l -190.495,0 c -9.961,0 -18.059,8.074 -18.059,18.015 0,4.981 2.051,9.485 5.282,12.707 l 0,0"
             style="fill:#d82a2a;fill-opacity:1;fill-rule:nonzero;stroke:none"
             id="path74" /><path
             d="m 929.188,556.98 c 3.261,3.231 7.785,5.258 12.777,5.258 l 190.495,0 c 9.94,0 17.99,-8.027 17.99,-17.968 0,-9.918 -8.05,-18.008 -17.99,-18.008 l -190.495,0 c -9.961,0 -18.059,8.09 -18.059,18.008 0,4.98 2.051,9.468 5.282,12.71 l 0,0"
             style="fill:#f1dd4d;fill-opacity:1;fill-rule:nonzero;stroke:none"
             id="path76" /><path
             d="m 368.352,1084.71 c -3.262,-3.26 -7.786,-5.28 -12.754,-5.28 l -190.508,0 c -9.934,0 -18,8.03 -18,17.97 0,9.92 8.066,18.01 18,18.01 l 190.508,0 c 9.937,0 18.023,-8.09 18.023,-18.01 0,-4.98 -2.051,-9.47 -5.269,-12.69 l 0,0"
             style="fill:#d82a2a;fill-opacity:1;fill-rule:nonzero;stroke:none"
             id="path78" /><path
             d="m 368.352,938.902 c -3.262,-3.23 -7.786,-5.242 -12.754,-5.242 l -190.508,0 c -9.934,0 -18,8.035 -18,17.969 0,9.922 8.066,18.008 18,18.008 l 190.508,0 c 9.937,0 18.023,-8.086 18.023,-18.008 0,-4.973 -2.051,-9.473 -5.269,-12.727 l 0,0"
             style="fill:#344ba6;fill-opacity:1;fill-rule:nonzero;stroke:none"
             id="path80" /><path
             d="m 368.352,793.18 c -3.262,-3.289 -7.786,-5.274 -12.754,-5.274 l -190.508,0 c -9.934,0 -18,8.008 -18,17.93 0,9.961 8.066,18.027 18,18.027 l 190.508,0 c 9.937,0 18.023,-8.066 18.023,-18.027 0,-4.941 -2.051,-9.453 -5.269,-12.656 l 0,0"
             style="fill:#65c045;fill-opacity:1;fill-rule:nonzero;stroke:none"
             id="path82" /><path
             d="m 1258.11,608.02 c 3.26,3.222 7.77,5.234 12.73,5.234 l 190.53,0 c 9.92,0 17.99,-8.008 17.99,-17.969 0,-9.902 -8.07,-18.008 -17.99,-18.008 l -190.53,0 c -9.92,0 -18.01,8.106 -18.01,18.008 0,4.961 2.03,9.473 5.28,12.735 l 0,0"
             style="fill:#d82a2a;fill-opacity:1;fill-rule:nonzero;stroke:none"
             id="path84" /><path
             d="m 1258.11,680.871 c 3.26,3.262 7.77,5.254 12.73,5.254 l 190.53,0 c 9.92,0 17.99,-8.008 17.99,-17.949 0,-9.942 -8.07,-18.008 -17.99,-18.008 l -190.53,0 c -9.92,0 -18.01,8.066 -18.01,18.008 0,4.98 2.03,9.492 5.28,12.695 l 0,0"
             style="fill:#65c045;fill-opacity:1;fill-rule:nonzero;stroke:none"
             id="path86" /><path
             d="m 1258.11,753.762 c 3.26,3.261 7.77,5.254 12.73,5.254 l 190.53,0 c 9.92,0 17.99,-8.028 17.99,-17.95 0,-9.941 -8.07,-18.007 -17.99,-18.007 l -190.53,0 c -9.92,0 -18.01,8.066 -18.01,18.007 0,4.942 2.03,9.473 5.28,12.696 l 0,0"
             style="fill:#344ba6;fill-opacity:1;fill-rule:nonzero;stroke:none"
             id="path88" /><path
             d="m 1258.11,972.418 c 3.26,3.262 7.77,5.266 12.73,5.266 l 190.53,0 c 9.92,0 17.99,-8.02 17.99,-17.969 0,-9.914 -8.07,-17.988 -17.99,-17.988 l -190.53,0 c -9.92,0 -18.01,8.074 -18.01,17.988 0,4.988 2.03,9.473 5.28,12.703 l 0,0"
             style="fill:#a8d53c;fill-opacity:1;fill-rule:nonzero;stroke:none"
             id="path90" /><path
             d="m 368.352,574.875 c -3.262,-3.281 -7.786,-5.254 -12.754,-5.254 l -190.508,0 c -9.934,0 -18,7.988 -18,17.91 0,9.961 8.066,18.028 18,18.028 l 190.508,0 c 9.937,0 18.023,-8.067 18.023,-18.028 0,-4.941 -2.051,-9.453 -5.269,-12.656 l 0,0"
             style="fill:#f25922;fill-opacity:1;fill-rule:nonzero;stroke:none"
             id="path92" /><path
             d="m 368.352,501.98 c -3.262,-3.281 -7.786,-5.269 -12.754,-5.269 l -190.508,0 c -9.934,0 -18,8.027 -18,17.969 0,9.922 8.066,18.011 18,18.011 l 190.508,0 c 9.937,0 18.023,-8.089 18.023,-18.011 0,-4.981 -2.051,-9.469 -5.269,-12.7 l 0,0"
             style="fill:#d82a2a;fill-opacity:1;fill-rule:nonzero;stroke:none"
             id="path94" /><path
             d="m 368.352,356.191 c -3.262,-3.23 -7.786,-5.23 -12.754,-5.23 l -190.508,0 c -9.934,0 -18,8.008 -18,17.937 0,9.93 8.066,18.032 18,18.032 l 190.508,0 c 9.937,0 18.023,-8.102 18.023,-18.032 0,-4.949 -2.051,-9.476 -5.269,-12.707 l 0,0"
             style="fill:#344ba6;fill-opacity:1;fill-rule:nonzero;stroke:none"
             id="path96" /><path
             d="m 368.352,283.32 c -3.262,-3.261 -7.786,-5.25 -12.754,-5.25 l -190.508,0 c -9.934,0 -18,8.008 -18,17.93 0,9.961 8.066,18.02 18,18.02 l 190.508,0 c 9.937,0 18.023,-8.059 18.023,-18.02 0,-4.961 -2.051,-9.449 -5.269,-12.68 l 0,0"
             style="fill:#4daac6;fill-opacity:1;fill-rule:nonzero;stroke:none"
             id="path98" /><path
             d="m 368.352,137.539 c -3.262,-3.25 -7.786,-5.258 -12.754,-5.258 l -190.508,0 c -9.934,0 -18,8.028 -18,17.969 0,9.93 8.066,17.98 18,17.98 l 190.508,0 c 9.937,0 18.023,-8.05 18.023,-17.98 0,-4.98 -2.051,-9.469 -5.269,-12.711 l 0,0"
             style="fill:#a8d53c;fill-opacity:1;fill-rule:nonzero;stroke:none"
             id="path100" /></g></g></g></g></svg>